<svg width="20" height="20" viewBox="0 0 20 20" fill="none" xmlns="http://www.w3.org/2000/svg">
<path fill-rule="evenodd" clip-rule="evenodd" d="M17.2 10C17.2 10.33 17.18 10.64 17.14 10.94L19.15 12.52C19.34 12.66 19.39 12.91 19.27 13.13L17.35 16.45C17.23 16.67 16.98 16.75 16.76 16.67L14.37 15.71C13.88 16.09 13.34 16.41 12.75 16.65L12.39 19.19C12.36 19.43 12.16 19.6 11.92 19.6H8.07999C7.83999 19.6 7.64999 19.43 7.59999 19.19L7.23999 16.65C6.64999 16.41 6.11999 16.09 5.61999 15.71L3.22999 16.67C3.00999 16.74 2.75999 16.67 2.63999 16.45L0.719988 13.13C0.609988 12.93 0.659988 12.66 0.839988 12.52L2.86999 10.94C2.81999 10.64 2.79999 10.31 2.79999 10C2.79999 9.69002 2.83999 9.36002 2.88999 9.06002L0.859988 7.48002C0.659988 7.34002 0.619988 7.08002 0.739988 6.87002L2.64999 3.55002C2.76999 3.33002 3.01999 3.25002 3.23999 3.33002L5.62999 4.29002C6.11999 3.92002 6.65999 3.59002 7.24999 3.35002L7.60999 0.810024C7.64999 0.570024 7.83999 0.400024 8.07999 0.400024H11.92C12.16 0.400024 12.36 0.570024 12.4 0.810024L12.76 3.35002C13.35 3.59002 13.88 3.91002 14.38 4.29002L16.77 3.33002C16.99 3.26002 17.24 3.33002 17.36 3.55002L19.28 6.87002C19.39 7.07002 19.34 7.34002 19.16 7.48002L17.13 9.06002C17.18 9.36002 17.2 9.68003 17.2 10ZM6.39999 10C6.39999 11.98 8.01999 13.6 9.99999 13.6C11.98 13.6 13.6 11.98 13.6 10C13.6 8.02002 11.98 6.40002 9.99999 6.40002C8.01999 6.40002 6.39999 8.02002 6.39999 10Z" fill="#666666"/>
</svg>