<svg width="21" height="20" viewBox="0 0 21 20" fill="none" xmlns="http://www.w3.org/2000/svg">
<path fill-rule="evenodd" clip-rule="evenodd" d="M10.8674 0C8.10493 0 5.86743 2.2375 5.86743 5C5.86743 7.7625 8.10493 10 10.8674 10C13.6299 10 15.8674 7.7625 15.8674 5C15.8674 2.2375 13.6299 0 10.8674 0ZM13.4924 5C13.4924 3.55 12.3174 2.375 10.8674 2.375C9.41743 2.375 8.24243 3.55 8.24243 5C8.24243 6.45 9.41743 7.625 10.8674 7.625C12.3174 7.625 13.4924 6.45 13.4924 5ZM18.4924 16.25C18.4924 15.45 14.5799 13.625 10.8674 13.625C7.15493 13.625 3.24243 15.45 3.24243 16.25V17.625H18.4924V16.25ZM0.867432 16.25C0.867432 12.925 7.52993 11.25 10.8674 11.25C14.2049 11.25 20.8674 12.925 20.8674 16.25V20H0.867432V16.25Z" fill="#999999"/>
</svg>
