<svg width="19" height="20" viewBox="0 0 19 20" fill="none" xmlns="http://www.w3.org/2000/svg">
<path fill-rule="evenodd" clip-rule="evenodd" d="M12.6874 2H16.8674C17.9674 2 18.8674 2.9 18.8674 4V18C18.8674 19.1 17.9674 20 16.8674 20H2.86743C2.72743 20 2.59743 19.99 2.46743 19.97C2.07743 19.89 1.72743 19.69 1.45743 19.42C1.27743 19.23 1.12743 19.02 1.02743 18.78C0.927432 18.54 0.867432 18.27 0.867432 18V4C0.867432 3.72 0.927432 3.46 1.02743 3.23C1.12743 2.99 1.27743 2.77 1.45743 2.59C1.72743 2.32 2.07743 2.12 2.46743 2.04C2.59743 2.01 2.72743 2 2.86743 2H7.04743C7.46743 0.84 8.56743 0 9.86743 0C11.1674 0 12.2674 0.84 12.6874 2ZM11.8674 11H14.8674L9.86743 16L4.86743 11H7.86743V7H11.8674V11ZM9.86743 1.75C10.2774 1.75 10.6174 2.09 10.6174 2.5C10.6174 2.91 10.2774 3.25 9.86743 3.25C9.45743 3.25 9.11743 2.91 9.11743 2.5C9.11743 2.09 9.45743 1.75 9.86743 1.75ZM2.86743 18H16.8674V4H2.86743V18Z" fill="white"/>
</svg>
